<?xml version="1.0" standalone="no"?><!DOCTYPE svg PUBLIC "-//W3C//DTD SVG 1.1//EN" "http://www.w3.org/Graphics/SVG/1.1/DTD/svg11.dtd"><svg t="1653885972202" class="icon" viewBox="0 0 1024 1024" version="1.1" xmlns="http://www.w3.org/2000/svg" p-id="1282" xmlns:xlink="http://www.w3.org/1999/xlink" width="128" height="128"><defs><style type="text/css">@font-face { font-family: feedback-iconfont; src: url("//at.alicdn.com/t/font_1031158_u69w8yhxdu.woff2?t=1630033759944") format("woff2"), url("//at.alicdn.com/t/font_1031158_u69w8yhxdu.woff?t=1630033759944") format("woff"), url("//at.alicdn.com/t/font_1031158_u69w8yhxdu.ttf?t=1630033759944") format("truetype"); }
</style></defs><path d="M596.9408 869.5808h116.6848c103.168 0 186.7776-83.6096 186.7776-186.7776v-38.5536c0-104.9088-85.0432-190.0032-190.0032-190.0032h-81.4592c-61.7984 0-111.9232 50.1248-111.9232 111.9232v223.488c0 44.1344 35.7888 79.9232 79.9232 79.9232z" fill="#FFBE0A" p-id="1283"></path><path d="M760.32 895.0784H270.7968c-90.1632 0-163.5328-73.3696-163.5328-163.5328v-89.9584c0-16.7424 11.5712-31.232 27.8528-34.9184 46.2336-10.5472 78.5408-51.0976 78.5408-98.6112s-32.3072-88.064-78.5408-98.6112a35.8656 35.8656 0 0 1-27.8528-34.9184V284.5696c0-90.1632 73.3696-163.5328 163.5328-163.5328h489.5232c90.1632 0 163.5328 73.3696 163.5328 163.5328V374.784c0 16.5888-11.4176 31.0272-27.5456 34.8672-45.7728 10.8544-77.7216 51.3024-77.7216 98.4064s31.9488 87.552 77.7216 98.4064c16.1792 3.84 27.5456 18.2784 27.5456 34.8672v90.2144c0.0512 90.1632-73.3184 163.5328-163.5328 163.5328zM178.944 667.6992v63.8464c0 50.6368 41.216 91.8528 91.8528 91.8528h489.5232c50.6368 0 91.8528-41.216 91.8528-91.8528v-64.3072c-63.1808-26.624-105.3184-88.5248-105.3184-159.1808s42.0864-132.5568 105.3184-159.1808V284.5696c0-50.6368-41.216-91.8528-91.8528-91.8528H270.7968c-50.6368 0-91.8528 41.216-91.8528 91.8528v63.8464c63.8464 26.3168 106.4448 88.4224 106.4448 159.6416s-42.5472 133.3248-106.4448 159.6416z" fill="#34332E" p-id="1284"></path><path d="M651.9296 447.4368H377.5488c-19.8144 0-35.84-16.0256-35.84-35.84s16.0256-35.84 35.84-35.84h274.3808c19.8144 0 35.84 16.0256 35.84 35.84s-16.0256 35.84-35.84 35.84zM651.9296 623.0528H377.5488c-19.8144 0-35.84-16.0256-35.84-35.84s16.0256-35.84 35.84-35.84h274.3808c19.8144 0 35.84 16.0256 35.84 35.84s-16.0256 35.84-35.84 35.84z" fill="#34332E" p-id="1285"></path></svg>