<?xml version="1.0" standalone="no"?><!DOCTYPE svg PUBLIC "-//W3C//DTD SVG 1.1//EN" "http://www.w3.org/Graphics/SVG/1.1/DTD/svg11.dtd"><svg t="1653841730408" class="icon" viewBox="0 0 1024 1024" version="1.1" xmlns="http://www.w3.org/2000/svg" p-id="1740" xmlns:xlink="http://www.w3.org/1999/xlink" width="128" height="128"><defs><style type="text/css">@font-face { font-family: feedback-iconfont; src: url("//at.alicdn.com/t/font_1031158_u69w8yhxdu.woff2?t=1630033759944") format("woff2"), url("//at.alicdn.com/t/font_1031158_u69w8yhxdu.woff?t=1630033759944") format("woff"), url("//at.alicdn.com/t/font_1031158_u69w8yhxdu.ttf?t=1630033759944") format("truetype"); }
</style></defs><path d="M591.1552 658.0736m-179.0976 0a179.0976 179.0976 0 1 0 358.1952 0 179.0976 179.0976 0 1 0-358.1952 0Z" fill="#FFBE0A" p-id="1741"></path><path d="M510.464 101.6832c-226.8672 0-411.4432 184.576-411.4432 411.4432s184.576 411.4432 411.4432 411.4432 411.4432-184.576 411.4432-411.4432-184.576-411.4432-411.4432-411.4432z m0 751.2064c-187.3408 0-339.7632-152.4224-339.7632-339.7632S323.1232 173.3632 510.464 173.3632s339.7632 152.4224 339.7632 339.7632-152.4224 339.7632-339.7632 339.7632z" fill="#34332E" p-id="1742"></path><path d="M545.6896 489.5744h101.9392c19.8144 0 35.84-16.0256 35.84-35.84s-16.0256-35.84-35.84-35.84h-66.9696l60.8768-45.824a35.7888 35.7888 0 0 0 7.0656-50.176 35.79392 35.79392 0 0 0-50.176-7.0656L511.232 380.416 426.5984 315.0848c-15.6672-12.0832-38.1952-9.216-50.2784 6.4512-12.0832 15.6672-9.216 38.1952 6.4512 50.2784l59.648 46.08H377.0368c-19.8144 0-35.84 16.0256-35.84 35.84s16.0256 35.84 35.84 35.84h96.9728c-0.1024 12.5952-0.2048 29.3888-0.1536 51.8144H377.0368c-19.8144 0-35.84 16.0256-35.84 35.84s16.0256 35.84 35.84 35.84H474.112c0.1536 27.0336 0.3584 58.624 0.6144 95.6416a35.86048 35.86048 0 0 0 35.84 35.584h0.3072c19.8144-0.1536 35.7376-16.3328 35.584-36.096-0.2048-27.9552-0.4096-61.6448-0.6144-95.0784h101.7856c19.8144 0 35.84-16.0256 35.84-35.84s-16.0256-35.84-35.84-35.84h-101.9904c-0.0512-20.1728-0.0512-38.0416 0.0512-51.8656z" fill="#34332E" p-id="1743"></path></svg>