<?xml version="1.0" standalone="no"?><!DOCTYPE svg PUBLIC "-//W3C//DTD SVG 1.1//EN" "http://www.w3.org/Graphics/SVG/1.1/DTD/svg11.dtd"><svg t="1653841123054" class="icon" viewBox="0 0 1024 1024" version="1.1" xmlns="http://www.w3.org/2000/svg" p-id="1587" width="128" height="128" xmlns:xlink="http://www.w3.org/1999/xlink"><defs><style type="text/css">@font-face { font-family: feedback-iconfont; src: url("//at.alicdn.com/t/font_1031158_u69w8yhxdu.woff2?t=1630033759944") format("woff2"), url("//at.alicdn.com/t/font_1031158_u69w8yhxdu.woff?t=1630033759944") format("woff"), url("//at.alicdn.com/t/font_1031158_u69w8yhxdu.ttf?t=1630033759944") format("truetype"); }
</style></defs><path d="M139.2 524.1c-16.8 0-30.5-13.7-30.5-30.5s13.7-30.5 30.5-30.5 30.5 13.7 30.5 30.5-13.7 30.5-30.5 30.5z m0-46c-8.5 0-15.5 6.9-15.5 15.5 0 8.5 6.9 15.5 15.5 15.5s15.5-6.9 15.5-15.5c0-8.5-6.9-15.5-15.5-15.5z" fill="#47B7F8" p-id="1588"></path><path d="M176.1 305.1h-13.3v-13.3c0-3.6-2.9-6.5-6.5-6.5s-6.5 2.9-6.5 6.5v13.3h-13.3c-3.6 0-6.5 2.9-6.5 6.5s2.9 6.5 6.5 6.5h13.3v13.3c0 3.6 2.9 6.5 6.5 6.5s6.5-2.9 6.5-6.5v-13.3h13.3c3.6 0 6.5-2.9 6.5-6.5s-2.9-6.5-6.5-6.5zM908.8 306.2h-13.3v-13.3c0-3.6-2.9-6.5-6.5-6.5s-6.5 2.9-6.5 6.5v13.3h-13.3c-3.6 0-6.5 2.9-6.5 6.5s2.9 6.5 6.5 6.5h13.3v13.3c0 3.6 2.9 6.5 6.5 6.5s6.5-2.9 6.5-6.5v-13.3h13.3c3.6 0 6.5-2.9 6.5-6.5s-2.9-6.5-6.5-6.5z" fill="#F7E42F" p-id="1589"></path><path d="M868.5 440.2H853v-15.5c0-4.1-3.4-7.5-7.5-7.5s-7.5 3.4-7.5 7.5v15.5h-15.5c-4.1 0-7.5 3.4-7.5 7.5s3.4 7.5 7.5 7.5H838v15.5c0 4.1 3.4 7.5 7.5 7.5s7.5-3.4 7.5-7.5v-15.5h15.5c4.1 0 7.5-3.4 7.5-7.5s-3.4-7.5-7.5-7.5z" fill="#F8B62D" p-id="1590"></path><path d="M277.7 237.3m-11.2 0a11.2 11.2 0 1 0 22.4 0 11.2 11.2 0 1 0-22.4 0Z" fill="#F8B62D" p-id="1591"></path><path d="M780.2 296.6m-15 0a15 15 0 1 0 30 0 15 15 0 1 0-30 0Z" fill="#F8B62D" p-id="1592"></path><path d="M685.1 148.5m-15 0a15 15 0 1 0 30 0 15 15 0 1 0-30 0Z" fill="#F7E42F" p-id="1593"></path><path d="M502 155.4c-16.8 0-30.5-13.7-30.5-30.5s13.7-30.5 30.5-30.5 30.5 13.7 30.5 30.5-13.7 30.5-30.5 30.5z m0-46c-8.5 0-15.5 6.9-15.5 15.5 0 8.5 6.9 15.5 15.5 15.5s15.5-6.9 15.5-15.5c0-8.5-7-15.5-15.5-15.5z" fill="#F8B62D" p-id="1594"></path><path d="M322.4 75.7c-1.6-1.6-4.2-1.6-5.9 0-0.8 0.8-1.2 1.8-1.2 2.9s0.4 2.1 1.2 2.9l13.3 13.3c0.8 0.8 1.8 1.2 2.9 1.2s2.2-0.4 2.9-1.2c1.6-1.6 1.6-4.3 0-5.9l-13.2-13.2zM357.6 110.9c-0.8-0.8-1.8-1.2-2.9-1.2-1.1 0-2.2 0.4-2.9 1.2-1.6 1.6-1.6 4.3 0 5.9l13.3 13.3c0.8 0.8 1.8 1.2 2.9 1.2 1.1 0 2.2-0.4 2.9-1.2 0.8-0.8 1.2-1.8 1.2-2.9 0-1.1-0.4-2.2-1.2-2.9l-13.3-13.4zM354.7 96.2c1.1 0 2.2-0.4 2.9-1.2l13.3-13.3c0.8-0.8 1.2-1.8 1.2-2.9 0-1.1-0.4-2.2-1.2-2.9-1.6-1.6-4.3-1.6-5.9 0l-13.3 13.3c-1.6 1.6-1.6 4.3 0 5.9 0.8 0.6 1.9 1.1 3 1.1zM329.9 110.9l-13.3 13.3c-0.8 0.8-1.2 1.8-1.2 2.9 0 1.1 0.4 2.1 1.2 2.9 0.8 0.8 1.8 1.2 2.9 1.2 1.1 0 2.2-0.4 2.9-1.2l13.3-13.3c1.6-1.6 1.6-4.3 0-5.9-1.5-1.5-4.2-1.5-5.8 0.1zM332.5 102.9c0-2.3-1.9-4.2-4.1-4.2h-18.8c-2.3 0-4.1 1.9-4.1 4.2 0 2.3 1.9 4.1 4.1 4.1h18.8c2.2 0.1 4.1-1.8 4.1-4.1zM378 98.8h-18.8c-2.3 0-4.2 1.9-4.2 4.2 0 2.3 1.9 4.1 4.2 4.1H378c2.3 0 4.2-1.9 4.2-4.1 0-2.4-1.9-4.2-4.2-4.2zM343.7 64.5c-2.3 0-4.2 1.9-4.2 4.1v18.8c0 2.3 1.9 4.1 4.2 4.1 2.3 0 4.1-1.9 4.1-4.1V68.6c0.1-2.2-1.8-4.1-4.1-4.1zM343.7 114.2c-2.3 0-4.2 1.9-4.2 4.2v18.8c0 2.3 1.9 4.2 4.2 4.2 2.3 0 4.1-1.9 4.1-4.2v-18.8c0.1-2.3-1.8-4.2-4.1-4.2z" fill="#FAEE00" p-id="1595"></path><path d="M889 959.5h-26.8c-6.2 0-11.2-5-11.2-11.2 0-6.2 5-11.2 11.2-11.2H889c6.2 0 11.2 5 11.2 11.2 0.1 6.2-5 11.2-11.2 11.2zM173.5 959.5h-34.3c-6.2 0-11.2-5-11.2-11.2 0-6.2 5-11.2 11.2-11.2h34.3c6.2 0 11.2 5 11.2 11.2 0 6.2-5 11.2-11.2 11.2zM829.1 959.5H211.3c-6.2 0-11.2-5-11.2-11.2 0-6.2 5-11.2 11.2-11.2h617.8c6.2 0 11.2 5 11.2 11.2 0.1 6.2-5 11.2-11.2 11.2z" fill="#3E3A39" p-id="1596"></path><path d="M768.8 743.1c11.6-103.6-90.1-253.8-136-315.7-20.1-10-41.2-17.2-63.2-21.1a252.414 252.414 0 0 1-75 0c-140 25-248.1 185.3-248.1 323.8 0 150.6 127.9 218.2 285.6 218.2 78.2-33 221.8-71.9 236.7-205.2z" fill="#FCEE21" p-id="1597"></path><path d="M569.6 406.3c18.9-2.8 36.4-7.5 51.9-13.9 19.2-21.5 19.5-88 15.5-146-27.8-14.9-64.5-24.1-104.8-24.1-86.6 0-156.7 41.8-156.7 93.4 0 43.9 50.8 80.6 119.3 90.6 12.3-2.2 24.8-3.5 37.5-3.5 12.5 0.1 25 1.3 37.3 3.5z" fill="#FCEE21" p-id="1598"></path><path d="M817.7 730.1c0-116.8-101.2-272.6-223.3-312.9 44.6 61 168.4 174.3 159 301.4-9.9 133.8-154.6 189.5-232.7 222.4 157.7 0 297-60.3 297-210.9z" fill="#F8B62D" p-id="1599"></path><path d="M565.8 361.4c61.5 16 123-13.9 123-45.7 0-27.5-35.6-63.1-67.4-80.2 23.6 45.2 25.6 107.4-55.6 125.9z" fill="#F8B62D" p-id="1600"></path><path d="M601.9 683.5H447.6c-6.2 0-11.2-5-11.2-11.2s5-11.2 11.2-11.2h154.3c6.2 0 11.2 5 11.2 11.2s-5 11.2-11.2 11.2z" fill="#F8B62D" p-id="1601"></path><path d="M601.9 738.9H447.6c-6.2 0-11.2-5-11.2-11.2 0-6.2 5-11.2 11.2-11.2h154.3c6.2 0 11.2 5 11.2 11.2 0.1 6.1-5 11.2-11.2 11.2z" fill="#F8B62D" p-id="1602"></path><path d="M532.2 803.2c-6.2 0-11.2-5-11.2-11.2V664.8c0-6.2 5-11.2 11.2-11.2s11.2 5 11.2 11.2V792c0.1 6.2-4.9 11.2-11.2 11.2z" fill="#F8B62D" p-id="1603"></path><path d="M534.6 665.3c-2.7 0-5.4-1-7.5-2.9-4.6-4.2-5-11.3-0.8-15.9l63.8-71c4.2-4.6 11.3-5 15.9-0.8s5 11.3 0.8 15.9l-63.8 71c-2.2 2.5-5.3 3.7-8.4 3.7z" fill="#F8B62D" p-id="1604"></path><path d="M594.4 668.5H440.1c-6.2 0-11.2-5-11.2-11.2 0-6.2 5-11.2 11.2-11.2h154.3c6.2 0 11.2 5 11.2 11.2 0.1 6.2-5 11.2-11.2 11.2zM594.4 723.9H440.1c-6.2 0-11.2-5-11.2-11.2 0-6.2 5-11.2 11.2-11.2h154.3c6.2 0 11.2 5 11.2 11.2 0.1 6.1-5 11.2-11.2 11.2z" fill="#3E3A39" p-id="1605"></path><path d="M517.2 795.7c-6.2 0-11.2-5-11.2-11.2V657.3c0-6.2 5-11.2 11.2-11.2 6.2 0 11.2 5 11.2 11.2v127.2c0.1 6.2-4.9 11.2-11.2 11.2z" fill="#3E3A39" p-id="1606"></path><path d="M519.7 657.8c-2.7 0-5.4-1-7.5-2.9-4.6-4.2-5-11.3-0.8-15.9l63.8-71c4.2-4.6 11.3-5 15.9-0.8s5 11.3 0.8 15.9l-63.8 71a11.4 11.4 0 0 1-8.4 3.7z" fill="#3E3A39" p-id="1607"></path><path d="M514.8 657.8c-3.1 0-6.1-1.3-8.4-3.7l-63.8-71c-4.2-4.6-3.8-11.7 0.8-15.9 4.6-4.2 11.7-3.8 15.9 0.8l63.8 71c4.2 4.6 3.8 11.7-0.8 15.9-2.1 2-4.8 2.9-7.5 2.9z" fill="#3E3A39" p-id="1608"></path><path d="M707.7 397.9v9.9c0 11.3-9.2 20.5-20.5 20.5H377.1c-11.3 0-20.5-9.2-20.5-20.5v-9.9c0-11.3 9.2-20.5 20.5-20.5h310.1c11.2 0 20.5 9.2 20.5 20.5z" fill="#FCEE21" p-id="1609"></path><path d="M517.2 959.5c-192.3 0-311.7-88.8-311.7-231.8 0-61.3 13.1-109.5 43.7-161.3 3.2-5.3 10.1-7.1 15.4-3.9 5.3 3.2 7.1 10.1 3.9 15.4-28.8 48.7-40.6 92.1-40.6 149.8C228 858.8 336.1 937 517.2 937c181.1 0 289.2-78.3 289.2-209.3 0-144.8-129-319.6-289.2-319.6-75 0-131.8 25.7-184.3 83.2-4.2 4.6-11.3 4.9-15.9 0.7s-4.9-11.3-0.7-15.9c56.3-61.8 120.2-90.6 200.9-90.6 172.7 0 311.7 187.2 311.7 342.1 0.1 143.1-119.4 231.9-311.7 231.9z" fill="#3E3A39" p-id="1610"></path><path d="M517.2 414.4C418.4 414.4 341 368 341 308.7S418.5 203 517.2 203s176.2 46.4 176.2 105.7S616 414.4 517.2 414.4z m0-188.9c-83.3 0-153.7 38.1-153.7 83.2s70.4 83.2 153.7 83.2 153.7-38.1 153.7-83.2-70.4-83.2-153.7-83.2z" fill="#3E3A39" p-id="1611"></path><path d="M701.9 373.8v46c0 1.5-1.2 2.7-2.7 2.7H335.3c-1.5 0-2.7-1.2-2.7-2.7v-46c0-1.5 1.2-2.7 2.7-2.7h363.9c1.5 0 2.7 1.2 2.7 2.7z" fill="#FFFFFF" p-id="1612"></path><path d="M708.9 433.8H325.6c-2.3 0-4.2-1.9-4.2-4.2V364c0-2.3 1.9-4.2 4.2-4.2H709c2.3 0 4.2 1.9 4.2 4.2v65.5c0 2.4-1.9 4.3-4.3 4.3z m-365.1-50.3V410c0 0.7 0.6 1.2 1.2 1.2h344.4c0.7 0 1.2-0.6 1.2-1.2v-26.5c0-0.7-0.6-1.2-1.2-1.2H345c-0.6 0-1.2 0.6-1.2 1.2z" fill="#3E3A39" p-id="1613"></path><path d="M408 307.9c-0.8 0-1.7-0.1-2.5-0.3-6.1-1.4-9.8-7.4-8.4-13.5 4.8-20.8 19.8-29.7 27.8-31.6 6-1.5 12.1 2.3 13.6 8.3 1.4 6-2.2 11.9-8.1 13.5-1 0.3-8.7 3-11.4 14.8-1.3 5.2-5.9 8.8-11 8.8z" fill="#FFFFFF" p-id="1614"></path><path d="M300.9 828.3c-3.1 0-6.3-1.3-8.5-3.9-24.2-27.8-22.8-84.5-22.8-86.9 0.2-6.2 5.3-11.1 11.6-10.9 6.2 0.2 11.1 5.3 10.9 11.5-0.4 13.9 2 54 17.3 71.5 4.1 4.7 3.6 11.8-1.1 15.9-2.1 1.9-4.8 2.8-7.4 2.8z" fill="#FFFFFF" p-id="1615"></path><path d="M277.7 707.2h-1c-6.2-0.5-10.8-6-10.3-12.2l1.7-20.4c0.5-6.2 6-10.8 12.2-10.3 6.2 0.5 10.8 6 10.3 12.2l-1.7 20.4c-0.5 5.9-5.5 10.3-11.2 10.3z" fill="#FFFFFF" p-id="1616"></path><path d="M280.9 547.5c-2 0-4.1-0.6-6-1.7-5.3-3.3-6.8-10.3-3.5-15.5l12.2-19.4c3.3-5.3 10.3-6.8 15.5-3.5 5.3 3.3 6.8 10.3 3.5 15.5l-12.2 19.4c-2.2 3.3-5.8 5.2-9.5 5.2z" fill="#3E3A39" p-id="1617"></path></svg>